<svg xmlns="http://www.w3.org/2000/svg" viewBox="0 0 353.91 354.19"><defs><style>.cls-1{fill:#1a1a1a;}</style></defs><g id="Layer_2" data-name="Layer 2"><g id="Layer_1-2" data-name="Layer 1"><path class="cls-1" d="M188.64,179.52c-.66,0-1.3.49-2.87,1.13a61.41,61.41,0,0,0,6,2.26c33.67,8.7,63.43,1.4,87.31-23.94,37.16-39.44,32-105.38-10-139.68-.95-.77-2.06-1.36-3.82-2.5,16.23,30.6,10,60.75,3.77,90.89-2.27-16.76-5.86-32.65-19.47-44-.54,13.44-.28,26.61-1.76,39.58-2.44,21.37-9.41,41.24-23.85,57.74C214.57,171.66,203.29,178.88,188.64,179.52Z"/><path class="cls-1" d="M107.16,160.76c22.85-8.26,45.25-9.79,66.4,8.77a72.63,72.63,0,0,0-3.06-7.09c-16.77-28.51-41.58-44.21-74.73-45-44.54-1-85,33.19-93.89,78.27-2,10.35-2.69,20.69-.57,31.29,3.62-15.74,13.44-27.37,24.42-38.21a167.51,167.51,0,0,1,36.6-27.39c-9.95,13.38-18.53,26.95-16.84,45.8,2-2.17,3-3.35,4.11-4.57C65.6,184.31,84,169.12,107.16,160.76Z"/><path class="cls-1" d="M353.76,127.23l-1.85-.29c-3.14,16-13.05,27.76-24.13,38.65A170.67,170.67,0,0,1,291.14,193c15.36-22.85,20.34-36.4,16.06-45.13-.78.93-1.51,1.82-2.26,2.68-16.34,19-35.19,34.59-59.07,43.09-22.61,8.05-44.66,9.32-65-7.49.69,1.65,1.27,3.34,2.09,4.92C199,222.35,236.15,241.35,270.7,236a98.11,98.11,0,0,0,83-90.14C354.13,139.68,353.76,133.44,353.76,127.23Z"/><path class="cls-1" d="M245.88,268.72c16.93-1.94,33.1-5.13,45.28-20.38-13.93,0-26.62.95-39.11-.21-20-1.85-38.69-8.26-54.94-20.55-10.5-7.93-18.46-17.78-21.61-30.87-.77-3.2-1.06-6.51-1.72-10.71a24.19,24.19,0,0,0-1.59,2.58,35.86,35.86,0,0,0-1.27,3.79c-7,26.66-3.39,51.68,12.79,74.17,36,50.06,112.36,49.93,152,1.28a9.13,9.13,0,0,0,.88-2.39C312.39,277.35,266.15,279,245.88,268.72Z"/><path class="cls-1" d="M165.68,174.46a20.56,20.56,0,0,0,2.77-.79c-3.29-1.21-5.23-2.12-7.27-2.65-29.45-7.52-56.43-2.34-79.56,17.5-45,38.58-41.12,110.08,4.18,147.2a14.5,14.5,0,0,0,2,1.15c-8.71-14.08-9.73-29.58-9.55-45.07A155.12,155.12,0,0,1,85,246.64C87,263.34,90.78,279,104.2,290.56c.59-13.82.37-27.14,1.89-40.25,2.42-20.84,9.32-40.22,23.16-56.49C138.79,182.6,150.56,175.31,165.68,174.46Z"/><path class="cls-1" d="M188.33,328A166.62,166.62,0,0,1,161,291.42c22.06,15.14,35.4,20.06,45.2,16.14l-1.56-1.28c-19.35-16.41-35.36-35.39-44.09-59.55-8.2-22.7-9.74-44.94,7.05-65.64-1.92.85-3.92,1.55-5.76,2.56a86.61,86.61,0,0,0-42.34,95.27c9.8,41.73,46.92,72.87,89.72,75.12,5.8.31,11.64,0,17.46,0,.1-.67.21-1.34.31-2C210.82,349.15,199.19,339.09,188.33,328Z"/><path class="cls-1" d="M192.88,62.49c-25.25-15.58-37.35-20-45-15.72,2.15,1.88,4.3,3.69,6.38,5.58,18.78,17.12,33.86,36.79,41.11,61.52,6.17,21,5.85,41.19-9.67,59.3,1.65-.66,3.37-1.2,5-2,32-16.19,51.15-54.77,44.76-90.1A98.14,98.14,0,0,0,130.5.33a36.65,36.65,0,0,0-4.28,1C159,11.32,175.89,36.93,192.88,62.49Z"/><path class="cls-1" d="M107,84.86c-16.41,2.58-32.24,5.91-43.16,19.37,14.09.72,27.93.62,41.55,2.31,20.3,2.51,39.1,9.53,54.94,23,8.95,7.64,15.49,16.93,18.1,28.61.68,3,.92,6.12,1.36,9.19l.93.1c.76-2.14,1.72-4.24,2.26-6.44,7.89-31.9,1.27-60.4-21.84-83.89C121.62,37,54.08,42.46,18.42,85.82a20,20,0,0,0-1.5,2.78C46.91,72.49,76.91,78.64,107,84.86Z"/></g></g></svg>